# xmcd CD database file
#
# Track frame offsets:
#	150
#	11442
#	24172
#	34827
#	42857
#	52617
#	60480
#	70657
#	86390
#	99787
#	115365
#	127005
#	138330
#	152292
#	164507
#	179350
#	191020
#	203457
#	220670
#	238472
#	249507
#	259677
#	273107
#
# Disc length: 3829 seconds
#
# Revision: 1
# Processed by: cddbd v1.5.2PL0 Copyright (c) Steve Scherf et al.
# Submitted via: CDex 1.70beta3
#
DISCID=260ef317
DTITLE=Various Artist - アニメ主題歌大全集Disc05
DYEAR=1900
DGENRE=Blues
TTITLE0=克美しげる/エイトマン
TTITLE1=鈴木忠／CAポップス/シャダーの歌
TTITLE2=長宏/怪人ゴースターの歌
TTITLE3=加藤みどり/夕やけ番長
TTITLE4=桂京子/花のア太郎
TTITLE5=ハニー・ナイツ/江戸っ子のスキャット
TTITLE6=水原弘/忍のテーマ
TTITLE7=デューク・エイセス/白いつばめ
TTITLE8=宇野ゆう子/サザエさん
TTITLE9=宇野ゆう子/サザエさん一家
TTITLE10=加藤みどり/レッツゴー・サザエさん
TTITLE11=松尾香/ハッピーデイ・サザエさん
TTITLE12=松尾香/ひまわりみたいなサザエさん
TTITLE13=ザ・ワンダース/ばくはつ五郎
TTITLE14=ザ・ワンダース/涙はともだち
TTITLE15=ザ・ワンダース/青空学園校歌[桜が光る時計台]
TTITLE16=ザ・ワンダース/青空学園応援歌[もえろ青春]
TTITLE17=由紀さおり/クレオパトラの涙
TTITLE18=六文銭/ゲリラの歌
TTITLE19=沢村忠/キックの鬼
TTITLE20=沢村忠/キックのあけぼの
TTITLE21=うつみ宮土理/不思議な旅
TTITLE22=津賀有子/名物!モグタン音頭
EXTD=
EXTT0=
EXTT1=
EXTT2=
EXTT3=
EXTT4=
EXTT5=
EXTT6=
EXTT7=
EXTT8=
EXTT9=
EXTT10=
EXTT11=
EXTT12=
EXTT13=
EXTT14=
EXTT15=
EXTT16=
EXTT17=
EXTT18=
EXTT19=
EXTT20=
EXTT21=
EXTT22=
PLAYORDER=
